<?xml version="1.0" standalone="no"?><!DOCTYPE svg PUBLIC "-//W3C//DTD SVG 1.1//EN" "http://www.w3.org/Graphics/SVG/1.1/DTD/svg11.dtd"><svg t="1781006076290" class="icon" viewBox="0 0 1024 1024" version="1.1" xmlns="http://www.w3.org/2000/svg" p-id="8566" xmlns:xlink="http://www.w3.org/1999/xlink" width="16" height="16"><path d="M835.398 1023.581H306.106v0.419a30.324 30.324 0 0 1 0-60.37h529.71a39.354 39.354 0 0 0 37.33-40.96V221.23a27.532 27.532 0 1 1 54.83 0v701.44a97.164 97.164 0 0 1-92.578 100.911zM683.078 859.09H188.556v0.652a97.42 97.42 0 0 1-92.58-100.91V100.91A97.396 97.396 0 0 1 188.557 0h494.522a97.396 97.396 0 0 1 92.579 100.91V758.18a97 97 0 0 1-92.58 100.91z m37.33-758.178a39.238 39.238 0 0 0-37.33-40.96H188.556v0.418a39.354 39.354 0 0 0-37.33 40.96v657.502a39.354 39.354 0 0 0 37.33 40.96h494.522a39.354 39.354 0 0 0 37.33-40.96V100.91zM587.054 663.04h-302.08a30.324 30.324 0 0 1 0-60.37h302.08a30.324 30.324 0 0 1 0 60.37z m0-203.31h-302.08a28.788 28.788 0 0 1-27.509-30.069 29.23 29.23 0 0 1 27.532-30.301h302.08a28.812 28.812 0 0 1 27.508 30.301 29.184 29.184 0 0 1-27.508 30.068z m-54.389-202.66H284.998a30.324 30.324 0 0 1 0-60.369h247.668a28.625 28.625 0 0 1 27.532 30.068 29.09 29.09 0 0 1-27.532 30.302z" p-id="8567"></path></svg>