<?xml version="1.0" standalone="no"?><!DOCTYPE svg PUBLIC "-//W3C//DTD SVG 1.1//EN" "http://www.w3.org/Graphics/SVG/1.1/DTD/svg11.dtd"><svg t="1781006217899" class="icon" viewBox="0 0 1077 1024" version="1.1" xmlns="http://www.w3.org/2000/svg" p-id="15875" xmlns:xlink="http://www.w3.org/1999/xlink" width="16.828125" height="16"><path d="M967.114105 814.403368h-98.816a32.929684 32.929684 0 0 1 0-65.859368h98.816c18.189474 0 32.929684-14.740211 32.929684-32.929684v-592.842105c0-18.189474-14.740211-32.956632-32.929684-32.956632H110.753684c-18.189474 0-32.929684 14.767158-32.929684 32.956632v592.842105c0 18.189474 14.740211 32.929684 32.929684 32.929684h461.258105c12.611368 0 23.578947 7.114105 29.103158 17.542737 2.640842 1.455158 5.066105 3.233684 7.221895 5.335579l189.54779 183.026526a32.929684 32.929684 0 0 1-45.729685 47.400421l-189.547789-183.053474a33.145263 33.145263 0 0 1-3.826526-4.392421H110.780632a98.816 98.816 0 0 1-98.816-98.789052v-592.842105A98.816 98.816 0 0 1 110.780632 23.956211H967.141053a98.816 98.816 0 0 1 98.816 98.816v592.842105a98.816 98.816 0 0 1-98.816 98.789052z m-444.631579-131.745684c-23.066947 0-40.097684-9.539368-51.065263-28.645052-10.967579-19.105684-10.967579-38.211368 0-57.317053 10.967579-19.132632 28.025263-29.210947 51.065263-30.288842 17.542737 1.077895 31.851789 6.925474 42.819369 17.515789 10.967579 10.644211 16.437895 24.171789 16.437894 40.609685 0 16.464842-5.470316 30.261895-16.437894 41.391157-10.967579 11.183158-25.276632 16.734316-42.846316 16.734316z m45.379369-189.84421a44.463158 44.463158 0 0 1-88.926316 0c0 2.613895 0.107789 3.395368-0.404211-1.347369-3.341474-30.585263 0.970105-60.685474 20.695579-91.082105 12.611368-19.402105 30.558316-36.217263 53.840842-49.664 23.525053-13.608421 36.756211-26.085053 42.846316-36.810105a19.105684 19.105684 0 0 0 3.17979-11.425684c-0.754526-24.629895-18.970947-48.397474-74.24-48.909474-50.391579-0.458105-71.410526 14.686316-77.797053 51.065263a44.463158 44.463158 0 0 1-87.605895-15.333053c14.389895-82.027789 74.698105-125.466947 166.184421-124.658526 109.460211 0.997053 160.282947 67.314526 162.357895 135.141053 1.374316 45.487158-23.336421 89.061053-90.354526 127.89221-11.398737 6.575158-18.970947 13.662316-23.848421 21.153684-6.521263 10.078316-8.138105 20.399158-6.952421 32.121264-0.080842-1.131789 1.024 8.434526 1.024 11.856842z" fill="#dbdbdb" p-id="15876"></path></svg>