<?xml version="1.0" standalone="no"?><!DOCTYPE svg PUBLIC "-//W3C//DTD SVG 1.1//EN" "http://www.w3.org/Graphics/SVG/1.1/DTD/svg11.dtd"><svg t="1781006113165" class="icon" viewBox="0 0 1024 1024" version="1.1" xmlns="http://www.w3.org/2000/svg" p-id="11856" xmlns:xlink="http://www.w3.org/1999/xlink" width="16" height="16"><path d="M525.165714 976.164571H135.68V120.832h712.777143V434.468571a23.771429 23.771429 0 1 0 47.542857 0V97.060571a23.771429 23.771429 0 0 0-23.844571-23.698285H111.908571a23.771429 23.771429 0 0 0-23.771428 23.698285v902.875429a23.771429 23.771429 0 0 0 23.771428 23.771429H525.165714a23.771429 23.771429 0 1 0 0-47.542858z" fill="#000000" p-id="11857"></path><path d="M796.086857 458.24a23.771429 23.771429 0 0 0-23.771428-23.771429H211.602286a23.771429 23.771429 0 1 0 0 47.542858h560.713143a23.771429 23.771429 0 0 0 23.771428-23.771429z m0-164.352a23.771429 23.771429 0 0 0-23.771428-23.771429H211.602286a23.771429 23.771429 0 1 0 0 47.542858h560.713143a23.771429 23.771429 0 0 0 23.771428-23.771429z m-584.484571 321.097143a23.771429 23.771429 0 1 0 0 47.542857H591.725714a23.771429 23.771429 0 1 0 0-47.542857H211.602286z m793.453714-19.894857a23.844571 23.844571 0 0 0-9.508571-15.433143l-115.858286-83.309714a23.771429 23.771429 0 0 0-33.133714 5.412571l-219.209143 304.713143a23.698286 23.698286 0 0 0-3.949715 9.216l-34.157714 169.691428a23.771429 23.771429 0 0 0 35.108572 25.234286l149.942857-86.381714a23.625143 23.625143 0 0 0 7.460571-6.729143l219.136-304.713143a23.771429 23.771429 0 0 0 4.169143-17.700571z m-258.925714 290.523428l-99.986286 57.563429 22.820571-113.078857 202.313143-281.307429 77.165715 55.588572-202.313143 281.234285z" fill="#000000" p-id="11858"></path></svg>