<?xml version="1.0" standalone="no"?><!DOCTYPE svg PUBLIC "-//W3C//DTD SVG 1.1//EN" "http://www.w3.org/Graphics/SVG/1.1/DTD/svg11.dtd"><svg t="1781006635375" class="icon" viewBox="0 0 1024 1024" version="1.1" xmlns="http://www.w3.org/2000/svg" p-id="25577" xmlns:xlink="http://www.w3.org/1999/xlink" width="16" height="16"><path d="M464.682667 92.586667a40.576 40.576 0 0 1 3.925333 81.066666H275.285333a101.546667 101.546667 0 0 0-101.333333 96.085334v479.018666a101.418667 101.418667 0 0 0 96.042667 101.333334h479.018666a101.504 101.504 0 0 0 101.333334-96.042667v-194.816a40.576 40.576 0 0 1 81.066666-3.882667v193.28a182.656 182.656 0 0 1-176.256 182.528H275.157333a182.656 182.656 0 0 1-182.528-176.256V274.858667a182.613333 182.613333 0 0 1 176.213334-182.528h6.4z m420.650666 50.773333a40.533333 40.533333 0 0 1 2.773334 54.314667l-2.773334 3.114666-324.693333 324.693334a40.576 40.576 0 0 1-60.202667-54.272l2.773334-3.114667 324.693333-324.650667a40.490667 40.490667 0 0 1 57.386667 0z m0 0" p-id="25578"></path></svg>