<?xml version="1.0" standalone="no"?><!DOCTYPE svg PUBLIC "-//W3C//DTD SVG 1.1//EN" "http://www.w3.org/Graphics/SVG/1.1/DTD/svg11.dtd"><svg t="1782986328688" class="icon" viewBox="0 0 1024 1024" version="1.1" xmlns="http://www.w3.org/2000/svg" p-id="7731" xmlns:xlink="http://www.w3.org/1999/xlink" width="16" height="16"><path d="M947.2 332.8l-170.666667-183.466667c-12.8-12.8-34.133333-21.333333-55.466666-21.333333H302.933333c-21.333333-4.266667-38.4 0-59.733333 17.066667l-170.666667 192c-21.333333 29.866667-21.333333 64 0 93.866666l401.066667 452.266667c8.533333 8.533333 25.6 17.066667 38.4 17.066667h8.533333c12.8 0 25.6-8.533333 29.866667-17.066667l396.8-448c12.8-12.8 21.333333-29.866667 17.066667-51.2 4.266667-21.333333-4.266667-38.4-17.066667-51.2zM512 832L123.733333 392.533333c-4.266667-8.533333-4.266667-12.8-4.266666-17.066666l170.666666-183.466667h430.933334c4.266667 0 8.533333 0 12.8 4.266667l170.666666 183.466666 4.266667 8.533334L512 832z" p-id="7732" fill="#f4ea2a"></path><path d="M657.066667 396.8L512 563.2 366.933333 396.8c-12.8-12.8-34.133333-12.8-46.933333-4.266667-12.8 12.8-12.8 34.133333-4.266667 46.933334l170.666667 192c8.533333 8.533333 17.066667 8.533333 25.6 8.533333s17.066667-4.266667 25.6-12.8l170.666667-192c12.8-12.8 8.533333-34.133333-4.266667-46.933333-12.8-4.266667-34.133333-4.266667-46.933333 8.533333z" p-id="7733" fill="#f4ea2a"></path></svg>